<?xml version="1.0" encoding="UTF-8" standalone="no"?><!DOCTYPE svg PUBLIC "-//W3C//DTD SVG 1.1//EN" "http://www.w3.org/Graphics/SVG/1.1/DTD/svg11.dtd"><svg width="100%" height="100%" viewBox="0 0 675 88" version="1.1" xmlns="http://www.w3.org/2000/svg" xmlns:xlink="http://www.w3.org/1999/xlink" xml:space="preserve" xmlns:serif="http://www.serif.com/" style="fill-rule:evenodd;clip-rule:evenodd;stroke-linejoin:round;stroke-miterlimit:2;"><path d="M56.052,62.18c-1.798,8.09 -9.701,14.922 -20.838,14.922c-12.754,-0 -22.094,-9.169 -22.094,-33.62c-0,-18.338 5.209,-33.26 23.89,-33.26c8.981,-0 18.143,3.416 17.065,17.079l11.861,-1.977c1.977,-16.895 -12.221,-25.324 -29.465,-25.324c-19.599,0 -36.471,10.761 -36.471,43.482c-0,27.507 12.021,43.842 35.204,43.842c17.073,-0 27.497,-8.967 31.272,-22.987l-10.424,-2.157Z" style="fill:#fff;fill-rule:nonzero;"/><path d="M136.589,71.886c0.179,7.906 3.587,16.336 18.671,14.182l2.336,-10.765c-11.141,1.978 -10.244,-4.856 -10.244,-10.971l-0,-34.864c-0,-20.68 -8.431,-29.468 -29.463,-29.468c-21.579,0 -33.42,9.326 -31.267,25.871l11.666,1.979c-0.899,-12.592 7.013,-17.448 19.241,-17.448c13.847,-0 17.983,6.115 17.983,21.405l0,5.216c-31.47,0.18 -51.76,9.683 -51.76,28.388c-0,14.919 12.738,21.913 25.505,21.913c13.308,-0 23.738,-7.532 27.332,-15.618l-0,0.18Zm-1.077,-15.827c-0.719,11.151 -12.048,21.043 -24.456,21.043c-8.992,-0 -14.387,-5.036 -14.387,-12.77c0,-10.791 10.61,-17.446 38.843,-17.626l0,9.353Z" style="fill:#fff;fill-rule:nonzero;"/><path d="M177.208,84.808l12.019,-0l0,-40.978c1.438,-12.94 7.908,-32.17 21.747,-32.17c5.392,-0 8.447,4.672 8.447,4.672l6.47,-9.336c0,-0 -3.954,-6.996 -12.94,-6.996c-13.12,0 -21.207,11.301 -24.082,19.028l-0,-16.512l-11.661,0l0,82.292Z" style="fill:#fff;fill-rule:nonzero;"/><path d="M289.894,71.886c0.179,7.906 3.587,16.336 18.671,14.182l2.336,-10.765c-11.141,1.978 -10.244,-4.856 -10.244,-10.971l-0,-34.864c-0,-20.68 -8.431,-29.468 -29.463,-29.468c-21.578,0 -33.42,9.326 -31.267,25.871l11.666,1.979c-0.899,-12.592 7.013,-17.448 19.242,-17.448c13.846,-0 17.982,6.115 17.982,21.405l0,5.216c-31.47,0.18 -51.76,9.683 -51.76,28.388c-0,14.919 12.738,21.913 25.505,21.913c13.308,-0 23.738,-7.532 27.332,-15.618l-0,0.18Zm-1.077,-15.827c-0.719,11.151 -12.048,21.043 -24.456,21.043c-8.992,-0 -14.387,-5.036 -14.387,-12.77c0,-10.791 10.61,-17.446 38.843,-17.626l0,9.353Z" style="fill:#fff;fill-rule:nonzero;"/><path d="M381.533,62.18c-1.797,8.09 -9.701,14.922 -20.838,14.922c-12.753,-0 -22.094,-9.169 -22.094,-33.62c0,-18.338 5.209,-33.26 23.89,-33.26c8.982,-0 18.143,3.416 17.065,17.079l11.862,-1.977c1.977,-16.895 -12.222,-25.324 -29.466,-25.324c-19.599,0 -36.471,10.761 -36.471,43.482c0,27.507 12.021,43.842 35.204,43.842c17.074,-0 27.498,-8.967 31.272,-22.987l-10.424,-2.157Z" style="fill:#fff;fill-rule:nonzero;"/><path d="M462.07,71.886c0.179,7.906 3.587,16.336 18.671,14.182l2.336,-10.765c-11.141,1.978 -10.244,-4.856 -10.244,-10.971l-0,-34.864c-0,-20.68 -8.431,-29.468 -29.463,-29.468c-21.578,0 -33.42,9.326 -31.267,25.871l11.666,1.979c-0.899,-12.592 7.013,-17.448 19.242,-17.448c13.846,-0 17.982,6.115 17.982,21.405l0,5.216c-31.47,0.18 -51.76,9.683 -51.76,28.388c-0,14.919 12.738,21.913 25.506,21.913c13.307,-0 23.737,-7.532 27.331,-15.618l-0,0.18Zm-1.077,-15.827c-0.719,11.151 -12.048,21.043 -24.456,21.043c-8.992,-0 -14.386,-5.036 -14.386,-12.77c-0,-10.791 10.609,-17.446 38.842,-17.626l0,9.353Z" style="fill:#fff;fill-rule:nonzero;"/><path d="M502.69,84.808l12.019,-0l-0,-40.978c1.437,-12.94 7.908,-32.17 21.746,-32.17c5.392,-0 8.447,4.672 8.447,4.672l6.47,-9.336c0,-0 -3.953,-6.996 -12.94,-6.996c-13.12,0 -21.207,11.301 -24.082,19.028l-0,-16.512l-11.66,0l-0,82.292Z" style="fill:#fff;fill-rule:nonzero;"/><path d="M615.375,71.886c0.179,7.906 3.588,16.336 18.671,14.182l2.336,-10.765c-11.141,1.978 -10.244,-4.856 -10.244,-10.971l-0,-34.864c-0,-20.68 -8.431,-29.468 -29.463,-29.468c-21.578,0 -33.419,9.326 -31.267,25.871l11.666,1.979c-0.899,-12.592 7.013,-17.448 19.242,-17.448c13.847,-0 17.983,6.115 17.983,21.405l-0,5.216c-31.47,0.18 -51.761,9.683 -51.761,28.388c-0,14.919 12.738,21.913 25.506,21.913c13.307,-0 23.737,-7.532 27.331,-15.618l-0,0.18Zm-1.076,-15.827c-0.72,11.151 -12.049,21.043 -24.457,21.043c-8.992,-0 -14.386,-5.036 -14.386,-12.77c-0,-10.791 10.609,-17.446 38.843,-17.626l-0,9.353Z" style="fill:#fff;fill-rule:nonzero;"/><path d="M653.299,75.653c-0,5.925 4.668,10.772 10.592,10.772c5.925,0 10.593,-4.847 10.593,-10.772c-0,-5.745 -4.668,-10.593 -10.593,-10.593c-5.924,0 -10.592,4.848 -10.592,10.593Z" style="fill:#fff;fill-rule:nonzero;"/></svg>